 
 // big wave with few crest
 
 <svg xmlns="http://www.w3.org/2000/svg" viewBox="0 0 1440 320">
            <path
              fill="#aba9bb"
              fillOpacity="1"
              d="M0,256L48,245.3C96,235,192,213,288,186.7C384,160,480,128,576,101.3C672,75,768,53,864,85.3C960,117,1056,203,1152,208C1248,213,1344,139,1392,101.3L1440,64L1440,320L1392,320C1344,320,1248,320,1152,320C1056,320,960,320,864,320C768,320,672,320,576,320C480,320,384,320,288,320C192,320,96,320,48,320L0,320Z"
            ></path>
          </svg>

// wave with many crests

    <svg xmlns="http://www.w3.org/2000/svg" viewBox="0 0 1440 320">
            <path
              fill="#aba9bb"
              fillOpacity="1"
              d="M0,128L6.2,149.3C12.3,171,25,213,37,208C49.2,203,62,149,74,138.7C86.2,128,98,160,111,181.3C123.1,203,135,213,148,192C160,171,172,117,185,112C196.9,107,209,149,222,176C233.8,203,246,213,258,229.3C270.8,245,283,267,295,266.7C307.7,267,320,245,332,234.7C344.6,224,357,224,369,224C381.5,224,394,224,406,234.7C418.5,245,431,267,443,277.3C455.4,288,468,288,480,250.7C492.3,213,505,139,517,138.7C529.2,139,542,213,554,250.7C566.2,288,578,288,591,272C603.1,256,615,224,628,229.3C640,235,652,277,665,266.7C676.9,256,689,192,702,160C713.8,128,726,128,738,138.7C750.8,149,763,171,775,192C787.7,213,800,235,812,208C824.6,181,837,107,849,101.3C861.5,96,874,160,886,186.7C898.5,213,911,203,923,192C935.4,181,948,171,960,149.3C972.3,128,985,96,997,117.3C1009.2,139,1022,213,1034,234.7C1046.2,256,1058,224,1071,208C1083.1,192,1095,192,1108,165.3C1120,139,1132,85,1145,96C1156.9,107,1169,181,1182,202.7C1193.8,224,1206,192,1218,154.7C1230.8,117,1243,75,1255,90.7C1267.7,107,1280,181,1292,229.3C1304.6,277,1317,299,1329,309.3C1341.5,320,1354,320,1366,288C1378.5,256,1391,192,1403,144C1415.4,96,1428,64,1434,48L1440,32L1440,320L1433.8,320C1427.7,320,1415,320,1403,320C1390.8,320,1378,320,1366,320C1353.8,320,1342,320,1329,320C1316.9,320,1305,320,1292,320C1280,320,1268,320,1255,320C1243.1,320,1231,320,1218,320C1206.2,320,1194,320,1182,320C1169.2,320,1157,320,1145,320C1132.3,320,1120,320,1108,320C1095.4,320,1083,320,1071,320C1058.5,320,1046,320,1034,320C1021.5,320,1009,320,997,320C984.6,320,972,320,960,320C947.7,320,935,320,923,320C910.8,320,898,320,886,320C873.8,320,862,320,849,320C836.9,320,825,320,812,320C800,320,788,320,775,320C763.1,320,751,320,738,320C726.2,320,714,320,702,320C689.2,320,677,320,665,320C652.3,320,640,320,628,320C615.4,320,603,320,591,320C578.5,320,566,320,554,320C541.5,320,529,320,517,320C504.6,320,492,320,480,320C467.7,320,455,320,443,320C430.8,320,418,320,406,320C393.8,320,382,320,369,320C356.9,320,345,320,332,320C320,320,308,320,295,320C283.1,320,271,320,258,320C246.2,320,234,320,222,320C209.2,320,197,320,185,320C172.3,320,160,320,148,320C135.4,320,123,320,111,320C98.5,320,86,320,74,320C61.5,320,49,320,37,320C24.6,320,12,320,6,320L0,320Z"
            ></path>
          </svg>